<?xml version="1.0" standalone="no"?><!DOCTYPE svg PUBLIC "-//W3C//DTD SVG 1.1//EN" "http://www.w3.org/Graphics/SVG/1.1/DTD/svg11.dtd"><svg t="1767496261631" class="icon" viewBox="0 0 1501 1024" version="1.1" xmlns="http://www.w3.org/2000/svg" p-id="5022" xmlns:xlink="http://www.w3.org/1999/xlink" width="293.1640625" height="200"><path d="M1177.705 482.476c-31.888-57.38-70.126-101.967-114.713-146.6C948.279 227.558 820.82 170.178 680.616 170.178c-140.204 0-274.059 57.38-382.376 159.347-50.983 44.587-89.22 95.57-121.108 146.554l-6.397 19.142 6.397 12.746c6.396 6.35 12.745 19.095 19.142 31.841 25.491 38.238 57.333 76.475 89.22 114.713C393.812 762.885 527.667 820.218 674.22 820.218c146.6 0 274.06-57.333 388.772-159.3 44.587-44.634 82.825-89.221 114.713-146.6l6.35-12.746-6.35-19.096zM674.22 680.014c-108.317 0-191.188-82.825-191.188-191.188 0-108.317 82.871-191.188 191.188-191.188 108.363 0 191.188 82.871 191.188 191.188 0 108.363-82.825 191.188-191.188 191.188z m0-191.188H546.761a127.459 127.459 0 0 0 254.918 0 127.459 127.459 0 0 0-254.918 0H674.22z" fill="#ffffff" p-id="5023"></path></svg>